<svg viewBox="0 0 1024 1024" fill="currentColor" xmlns="http://www.w3.org/2000/svg">
  <path d="M238.047 879.766l-87.517-144.62 18.032-10.932 87.517 144.619z m87.259 5.182L148.976 544.98l18.86-9.793L345.463 877.64z m97.415 0L149.908 357.25l18.861-9.794 274.626 531.428z m99.383 0L149.908 147.239l20.986-5.181 371.315 735.79z m89.694-5.182L237.633 155.012l18.861-9.793L630.659 869.92z m113.996 0L326.705 155.271l18.55-10.363L744.241 869.61z m123.582 0L444.794 155.271l18.55-10.363 404.79 724.702z m5.855-193.482l-304.42-530.858 18.394-10.363 304.42 530.858z m0-203.845l-193.275-326.96 18.24-10.779 193.326 326.91z m-1.088-190.114l-88.917-136.432 17.721-11.607 88.969 136.432z" />
  <path d="M874.973 884.896H148.716V139.519h726.257v745.377zM200.429 833.08H823.26V191.23H203.175z" />
  <path d="M833.209 842.925V992h149.075V842.925zM940.054 949.77H875.44v-64.615h64.667zM833.21 32v149.075h149.075V32z m106.845 106.845H875.44V74.23h64.667zM41.716 842.925V992H190.79V842.925zM148.56 949.77H83.946v-64.615h64.615zM41.716 32v149.075H190.79V32zM148.56 138.845H83.946V74.23h64.615z" />
</svg>
