<svg viewBox="0 0 1024 1024" fill="currentColor" xmlns="http://www.w3.org/2000/svg">
  <path d="M466.274462 1024l-47.458462-44.032q12.288-13.312 31.074462-34.146462l49.467076 42.338462q-21.504 22.173538-33.083076 35.84zM564.893538 905.885538L512 866.304a1783.099077 1783.099077 0 0 0 59.076923-81.250462l53.563077 36.194462c-17.053538 27.648-37.888 55.965538-59.746462 84.676923z m117.76-174.08l-56.635076-31.744c16.384-28.396308 30.759385-57.934769 43.008-88.379076l60.061538 24.221538a838.498462 838.498462 0 0 1-46.434462 95.901538z m77.154462-199.68l-63.488-12.957538c6.340923-30.444308 9.688615-61.44 9.885538-92.514462l64.512-3.387076v3.387076a519.876923 519.876923 0 0 1-11.933538 105.472h1.024z m-67.584-200.704a294.203077 294.203077 0 0 0-38.596923-83.259076l53.956923-36.194462c20.873846 31.507692 36.745846 66.048 47.104 102.4l-62.464 17.053538zM590.848 180.578462a190.109538 190.109538 0 0 0-34.146462-22.882462l28.002462-58.368c16.541538 8.428308 32.216615 18.510769 46.749538 30.050462l-40.605538 51.2zM39.266462 1024L0 972.406154c3.741538-2.756923 360.763077-276.795077 450.56-531.101539a218.781538 218.781538 0 0 0-5.12-176.836923c-49.152-94.168615-170.653538-130.008615-170.653538-130.363077l18.077538-62.109538c5.789538 1.693538 147.101538 43.008 209.565538 162.107077A281.6 281.6 0 0 1 512 462.493538C415.389538 735.232 54.626462 1012.381538 39.266462 1024z" />
  <path d="M831.803077 1024l-45.016615-46.749538 22.528 23.552-22.528-23.552c1.693538-1.732923 172.347077-170.692923 172.347076-475.490462 0-296.96-346.781538-440.32-350.523076-441.698462L633.186462 0C648.546462 6.498462 1024 162.461538 1024 501.76S839.68 1016.516923 831.803077 1024z" />
</svg>
