<svg viewBox="0 0 1024 1024" fill="currentColor" xmlns="http://www.w3.org/2000/svg">
  <path d="M665.6 204.8v122.88c0 10.24 15.36 15.36 20.48 10.24L901.12 102.4c10.24-10.24 0-20.48-10.24-20.48l-322.56 20.48c-10.24 0-15.36 15.36-5.12 20.48L665.6 204.8z" />
  <path d="M931.84 588.8c-5.12-20.48-20.48-35.84-40.96-40.96L256 465.92c-5.12 0-10.24-10.24 0-10.24l312.32-158.72c15.36-5.12 20.48-20.48 20.48-35.84 0-10.24-5.12-20.48-15.36-30.72-10.24-10.24-25.6-10.24-40.96-5.12L117.76 435.2c-20.48 10.24-30.72 30.72-25.6 51.2 5.12 20.48 20.48 35.84 40.96 40.96l640 81.92c5.12 0 10.24 10.24 0 10.24l-353.28 184.32c-10.24-5.12-25.6-10.24-40.96-10.24-35.84 0-71.68 35.84-71.68 76.8s35.84 76.8 76.8 76.8S460.8 916.48 460.8 875.52l445.44-235.52c20.48-10.24 30.72-30.72 25.6-51.2z" />
</svg>
