<?xml version="1.0" standalone="no"?><!DOCTYPE svg PUBLIC "-//W3C//DTD SVG 1.1//EN" "http://www.w3.org/Graphics/SVG/1.1/DTD/svg11.dtd"><svg t="1756735767089" class="icon" viewBox="0 0 1024 1024" version="1.1" xmlns="http://www.w3.org/2000/svg" p-id="22142" xmlns:xlink="http://www.w3.org/1999/xlink" width="200" height="200"><path d="M506.709333 68.266667c95.402667 0 184.388267 36.4544 250.538667 102.570666 66.1504 66.1504 102.6048 155.101867 102.6048 250.538667 0 95.470933-36.4544 184.388267-102.6048 250.538667-66.116267 66.1504-155.067733 102.6048-250.538667 102.6048-95.4368 0-184.388267-36.4544-250.538666-102.6048C190.020267 605.7984 153.6 516.846933 153.6 421.376c0-95.4368 36.4544-184.388267 102.570667-250.538667C322.321067 104.686933 411.306667 68.266667 506.709333 68.266667z" fill="#0085F1" p-id="22143"></path><path d="M733.866667 382.429867v164.078933a27.067733 27.067733 0 0 1-26.624 27.306667H653.653333a143.837867 143.837867 0 0 0-141.858133-144.384 143.837867 143.837867 0 0 0-141.824 144.384H317.098667a27.067733 27.067733 0 0 1-26.624-27.306667v-164.078933a27.067733 27.067733 0 0 1 26.624-27.306667h390.144a27.067733 27.067733 0 0 1 26.624 27.306667zM724.650667 300.373333H299.008A9.0112 9.0112 0 0 1 290.133333 291.259733v-9.079466A9.0112 9.0112 0 0 1 299.008 273.066667h425.642667a9.0112 9.0112 0 0 1 8.874666 9.1136v9.147733a9.0112 9.0112 0 0 1-8.874666 9.079467V300.373333z m-199.168 54.715734h-26.624V300.373333h26.624v54.715734z m84.2752 0h-26.624V300.373333h26.624v54.715734z m84.206933 0h-26.624V300.373333h26.624v54.715734z m-252.7232 0h-26.624V300.373333h26.624v54.715734z m-84.241067 0h-26.624V300.373333h26.624v54.715734z" fill="#FFFFFF" p-id="22144"></path><path d="M500.497067 0C269.073067 0 85.333333 183.773867 85.333333 415.163733c0 78.165333 20.992 150.903467 57.685334 212.957867 89.088 165.888 260.9152 323.959467 328.874666 384.887467a43.008 43.008 0 0 0 57.0368 0.341333c67.242667-58.9824 235.178667-216.064 325.358934-379.153067a412.2624 412.2624 0 0 0 50.005333-121.105066c3.754667-14.5408 6.417067-29.354667 8.021333-44.270934 2.218667-17.8176 3.345067-35.771733 3.345067-53.725866C915.694933 183.773867 731.921067 0 500.497067 0z m237.1584 652.288c-62.634667 62.634667-146.807467 97.109333-237.1584 97.109333-90.350933 0-174.523733-34.474667-237.1584-97.0752-62.600533-62.600533-97.0752-146.807467-97.0752-237.1584 0-90.350933 34.474667-174.523733 97.0752-237.1584 62.600533-62.600533 146.807467-97.0752 237.1584-97.0752 90.350933 0 174.523733 34.474667 237.1584 97.0752 62.600533 62.600533 97.0752 146.807467 97.0752 237.1584 0 90.350933-34.474667 174.523733-97.0752 237.1584z" fill="#50ADF5" p-id="22145"></path></svg>