<?xml version="1.0" standalone="no"?><!DOCTYPE svg PUBLIC "-//W3C//DTD SVG 1.1//EN" "http://www.w3.org/Graphics/SVG/1.1/DTD/svg11.dtd"><svg t="1756735721587" class="icon" viewBox="0 0 1024 1024" version="1.1" xmlns="http://www.w3.org/2000/svg" p-id="21064" xmlns:xlink="http://www.w3.org/1999/xlink" width="200" height="200"><path d="M512 32a408 408 0 0 0-294.4 690.56c64 67.2 235.52 210.88 294.4 259.84 58.88-49.28 229.44-192 293.76-259.2A408 408 0 0 0 512 32z" fill="#FF7300" p-id="21065"></path><path d="M512 0a440 440 0 0 0-317.44 744.64C274.56 828.16 512 1024 512 1024s236.8-195.52 316.8-278.4A440 440 0 0 0 512 0z m293.76 723.2c-64 66.56-234.88 209.92-293.76 259.2-59.2-49.28-230.08-192-294.4-259.84a408 408 0 1 1 588.16 0z" fill="#FFFFFF" p-id="21066"></path><path d="M770.88 335.68L728.32 220.8s-44.48-7.04-88.32-9.28a160 160 0 0 0-66.56 0c-44.8 2.24-87.36 9.28-87.36 9.28l-32 87.04H448a160 160 0 0 0-66.56 0c-44.8 2.24-87.36 9.28-87.36 9.28l-40.96 114.56-29.12 28.16v137.92l21.44 22.72h21.44v45.12a37.44 37.44 0 0 0 1.92 21.44 243.52 243.52 0 0 0 42.56 0 37.12 37.12 0 0 0-1.92-21.44v-45.44h213.12v45.12a54.72 54.72 0 0 1 0 21.44 245.12 245.12 0 0 0 42.24 0 37.44 37.44 0 0 0 2.24-21.44v-45.12h21.12l21.44-19.84v-76.16h106.56v45.44a54.72 54.72 0 0 1 0 21.44 245.12 245.12 0 0 0 42.24 0 37.44 37.44 0 0 0 2.24-21.44v-45.44h21.12l21.44-20.16v-140.16z m-270.08-93.44a803.84 803.84 0 0 1 212.16 0l37.76 98.56a1961.92 1961.92 0 0 0-206.72-4.48l-7.36-19.52s-28.48-4.48-61.44-7.36z m-60.16 187.52V384a7.36 7.36 0 0 1 6.72-7.04h71.36a7.36 7.36 0 0 1 6.72 7.04l8.96 46.72s0 3.84-2.56 5.44q-45.12-2.56-90.56-3.2s-0.64-2.56-0.64-3.52z m25.28-96c16.64 0 32 2.88 49.6 4.8-17.6 0-35.2 0-52.48 2.88z m-130.24 199.68H256a7.36 7.36 0 0 1-6.72-7.04V480a7.36 7.36 0 0 1 6.72-8.32h71.36a7.36 7.36 0 0 1 6.72 7.04l8.96 46.72c1.6 2.24-2.88 7.04-7.36 7.04z m-64-96l38.08-98.24a802.88 802.88 0 0 1 137.6-6.08v3.84l-29.12 28.16v67.2q-74.88-1.28-147.2 4.16z m312.32 89.28a7.36 7.36 0 0 1-6.72 7.04h-75.84v-8.32h81.92z m192-96a7.36 7.36 0 0 1-6.72 7.04h-80.96c-4.48 0-8.96-4.8-6.72-7.04l8.96-46.72a7.36 7.36 0 0 1 6.72-7.04H768c2.24-2.24 6.72 2.24 6.72 7.04z" fill="#FFFFFF" p-id="21067"></path></svg>