<?xml version="1.0" standalone="no"?><!DOCTYPE svg PUBLIC "-//W3C//DTD SVG 1.1//EN" "http://www.w3.org/Graphics/SVG/1.1/DTD/svg11.dtd"><svg t="1756735812888" class="icon" viewBox="0 0 1024 1024" version="1.1" xmlns="http://www.w3.org/2000/svg" p-id="25006" xmlns:xlink="http://www.w3.org/1999/xlink" width="200" height="200"><path d="M724.848405 608.07964a94.092936 94.092936 0 0 1-7.964336 6.223559c-1.240161 0.932965-2.514455 1.82042-3.765993 2.73063C532.065973 745.020702 513.645602 894.431637 512.075491 934.116784c0-0.409594 0-0.750923-0.079644-1.137762-10.865629-161.357439-140.991495-271.925173-187.969698-306.763452a341.328669 341.328669 0 1 1 400.822256-18.13593zM511.995847 944.356644s-0.182042-3.674972 0.079644-10.23986C525.205267 1129.345405 511.995847 944.356644 511.995847 944.356644z" fill="#EC563E" p-id="25007"></path><path d="M511.995847 0.013994a341.260403 341.260403 0 0 1 212.852558 608.065646 94.092936 94.092936 0 0 1-7.964336 6.223559c-1.240161 0.932965-2.514455 1.82042-3.765993 2.73063a629.535219 629.535219 0 0 0-33.984957 25.804447L274.010122 96.723784A340.122641 340.122641 0 0 1 511.995847 0.013994z" fill="#FFFFFF" opacity=".2" p-id="25008"></path><path d="M709.829943 489.251753H302.784129a15.428056 15.428056 0 0 1-2.070728-23.801986L492.653889 142.143252a19.148538 19.148538 0 0 1 27.408692 0l191.826712 323.306515A15.428056 15.428056 0 0 1 709.829943 489.251753z" fill="#FFFFFF" p-id="25009"></path><path d="M511.153903 390.676033A24.439133 24.439133 0 0 1 486.965078 366.032103v-98.564342a24.234335 24.234335 0 1 1 48.457293 0v98.564342a24.439133 24.439133 0 0 1-24.268468 24.64393z m0 19.71742a24.64393 24.64393 0 1 1-24.188825 24.643929 24.439133 24.439133 0 0 1 24.188825-24.643929z" fill="#F04428" p-id="25010"></path></svg>