<?xml version="1.0" standalone="no"?><!DOCTYPE svg PUBLIC "-//W3C//DTD SVG 1.1//EN" "http://www.w3.org/Graphics/SVG/1.1/DTD/svg11.dtd"><svg t="1757602922066" class="icon" viewBox="0 0 1024 1024" version="1.1" xmlns="http://www.w3.org/2000/svg" p-id="13967" xmlns:xlink="http://www.w3.org/1999/xlink" width="200" height="200"><path d="M958.568778 467.457528c-2.888793-9.993608-13.867846-15.239076-23.557532-11.467169l-46.978964 18.287505c-0.01228-0.023536-0.025583-0.047072-0.037862-0.070608-0.074701-0.143263-0.146333-0.288572-0.231267-0.426719-0.12996-0.209778-0.273223-0.406253-0.423649-0.600681-0.113587-0.147356-0.229221-0.290619-0.353041-0.428765-0.152473-0.167822-0.310062-0.326435-0.477884-0.478907-0.154519-0.14224-0.317225-0.272199-0.484024-0.400113-0.164752-0.124843-0.329505-0.24764-0.50449-0.358157-0.201591-0.12689-0.413416-0.234337-0.627287-0.340761-0.166799-0.082888-0.328481-0.169869-0.502443-0.239454-0.260943-0.104377-0.535189-0.179079-0.810459-0.251733-0.146333-0.038886-0.287549-0.091074-0.437975-0.12075-0.434905-0.084934-0.88209-0.135076-1.342578-0.135076l0 0-0.001023 0c-0.460488 0-0.906649 0.051165-1.341554 0.135076-0.153496 0.029676-0.294712 0.082888-0.444115 0.122797-0.273223 0.072655-0.545422 0.146333-0.804319 0.249687-0.178055 0.070608-0.342808 0.160659-0.5137 0.245593-0.209778 0.104377-0.416486 0.208754-0.613984 0.332575-0.182149 0.11461-0.352017 0.242524-0.522909 0.372483-0.159636 0.122797-0.315178 0.246617-0.463558 0.382717-0.176009 0.159636-0.339738 0.326435-0.49835 0.502443-0.11461 0.128937-0.223081 0.261966-0.328481 0.399089-0.159636 0.205685-0.310062 0.414439-0.446162 0.63752-0.074701 0.122797-0.138146 0.25071-0.204661 0.3776-0.071631 0.134053-0.154519 0.260943-0.216941 0.400113l-47.774073-18.597567c-9.689686-3.771907-20.668739 1.473561-23.557532 11.467169-1.627057 5.630231-1.627057 10.168594-1.627057 10.168594s0.001023 0.049119 0.002047 0.124843c0.001023 0.040932 0.001023 0.063445 0.00307 0.135076 0.001023 0.035816 0.001023 0.056282 0.002047 0.099261l0.001023 0c0.033769 1.131777 0.246617 5.064342 1.617847 9.809413 2.888793 9.993608 13.867846 15.238053 23.557532 11.467169l47.857984-18.629289c0.022513-0.00921 0.036839-0.025583 0.059352-0.034792 0.657986 1.309832 1.703805 2.373047 2.997264 3.056616l0 14.122649-8.538467 0c-4.947685 0-9.42772 2.006703-12.669554 5.251607-1.446955 1.447978-2.598174 3.171226-3.484358 5.042853l-53.052287-10.31288L800.794405 382.554836c9.497305-0.448208 17.076934-8.230452 17.076934-17.845437l0-12.573363 9.116635-6.816243c7.812943-5.842055 9.414417-16.915251 3.576455-24.733311-4.719488-6.320962-12.837376-8.494465-19.910469-6.040576-2.993171-2.24718-6.671956-3.626597-10.701736-3.626597l-10.337439 0L789.614785 296.761867c1.156336-0.627287 2.108011-1.558495 2.75781-2.701528l47.127344 18.34481c9.689686 3.771907 20.668739-1.473561 23.557532-11.466146 1.37123-4.744048 1.585101-8.677637 1.61887-9.809413l0.001023 0c0.001023-0.037862 0.002047-0.056282 0.002047-0.089028 0.002047-0.076748 0.00307-0.105401 0.00307-0.148379 0.001023-0.074701 0.002047-0.122797 0.002047-0.122797s0-4.538363-1.62808-10.168594c-2.888793-9.993608-13.867846-15.238053-23.557532-11.466146l-46.978964 18.287505c-0.01228-0.024559-0.026606-0.048095-0.038886-0.072655-0.074701-0.14224-0.145309-0.286526-0.229221-0.422625-0.12996-0.210801-0.274246-0.407276-0.425695-0.602727-0.112564-0.147356-0.228197-0.289596-0.352017-0.427742-0.151449-0.167822-0.309038-0.325411-0.476861-0.477884-0.155543-0.14224-0.319272-0.273223-0.487094-0.402159-0.163729-0.12382-0.327458-0.245593-0.50142-0.355087-0.202615-0.127913-0.415462-0.236384-0.632403-0.342808-0.164752-0.081864-0.325411-0.167822-0.497327-0.236384-0.26299-0.105401-0.539282-0.181125-0.816598-0.25378-0.145309-0.037862-0.283456-0.090051-0.431835-0.118704-0.435928-0.084934-0.883113-0.1361-1.343601-0.1361-0.460488 0-0.908696 0.051165-1.344624 0.1361-0.150426 0.028653-0.289596 0.081864-0.435928 0.12075-0.276293 0.072655-0.550539 0.147356-0.812505 0.252757-0.176009 0.070608-0.339738 0.159636-0.508583 0.242524-0.211824 0.105401-0.420579 0.210801-0.6191 0.336668-0.181125 0.113587-0.349971 0.240477-0.51984 0.370437-0.160659 0.122797-0.316202 0.24764-0.465604 0.38374-0.176009 0.159636-0.340761 0.327458-0.499373 0.503467-0.11461 0.127913-0.221034 0.25992-0.326435 0.396019-0.160659 0.206708-0.312108 0.416486-0.448208 0.64059-0.073678 0.121773-0.137123 0.248663-0.203638 0.375553-0.071631 0.135076-0.154519 0.261966-0.217964 0.401136l-47.774073-18.597567c-3.027963-1.178849-6.181793-1.476631-9.174963-1.02433-1.197268 0.181125-2.368954 0.481977-3.496637 0.89437-0.563842 0.205685-1.116427 0.440022-1.656733 0.700965-1.079588 0.521886-2.104941 1.152243-3.059686 1.880837-2.864234 2.186805-5.084808 5.266957-6.16849 9.014304-1.627057 5.630231-1.627057 10.168594-1.627057 10.168594s0.001023 0.049119 0.002047 0.124843c0.001023 0.040932 0.002047 0.063445 0.00307 0.135076 0.001023 0.035816 0.001023 0.056282 0.002047 0.099261l0.001023 0c0.033769 1.131777 0.246617 5.064342 1.617847 9.809413 2.888793 9.993608 13.867846 15.238053 23.557532 11.466146l47.857984-18.629289c0.022513-0.00921 0.036839-0.025583 0.059352-0.034792 0.656963 1.309832 1.703805 2.372024 2.997264 3.056616l0 14.122649-8.538467 0c-9.896394 0-17.918092 8.027837-17.918092 17.929348l0 24.99937-80.31214 60.045561c-9.698896-4.849448-20.6319-7.592932-32.211633-7.592932L385.80588 406.301679c-8.78099 0-17.194614 1.572822-24.978904 4.446265l-74.352405-55.590086 0-26.308179c0-9.902534-8.022721-17.929348-17.919115-17.929348l-10.337439 0L258.218016 296.761867c1.156336-0.627287 2.108011-1.558495 2.75781-2.701528l47.127344 18.34481c9.689686 3.771907 20.668739-1.473561 23.557532-11.466146 1.37123-4.744048 1.585101-8.677637 1.61887-9.809413l0.001023 0c0.001023-0.037862 0.001023-0.056282 0.002047-0.089028 0.002047-0.076748 0.00307-0.105401 0.004093-0.148379 0.001023-0.074701 0.002047-0.122797 0.002047-0.122797s0-4.538363-1.62808-10.168594c-2.888793-9.993608-13.867846-15.238053-23.557532-11.466146l-46.978964 18.287505c-0.01228-0.023536-0.025583-0.047072-0.037862-0.070608-0.075725-0.143263-0.146333-0.288572-0.231267-0.425695-0.12996-0.209778-0.273223-0.406253-0.423649-0.600681-0.113587-0.147356-0.229221-0.290619-0.353041-0.428765-0.152473-0.167822-0.310062-0.326435-0.476861-0.478907-0.155543-0.14224-0.318248-0.273223-0.485047-0.400113-0.164752-0.124843-0.328481-0.246617-0.503467-0.357134-0.202615-0.12689-0.414439-0.23536-0.630357-0.341784-0.165776-0.081864-0.326435-0.168846-0.499373-0.237407-0.26299-0.105401-0.538259-0.180102-0.815575-0.25378-0.145309-0.037862-0.283456-0.090051-0.431835-0.118704-0.434905-0.084934-0.883113-0.1361-1.342578-0.1361-0.461511 0-0.908696 0.051165-1.344624 0.1361-0.150426 0.028653-0.289596 0.081864-0.435928 0.12075-0.276293 0.072655-0.550539 0.147356-0.811482 0.252757-0.177032 0.070608-0.339738 0.159636-0.509606 0.243547-0.210801 0.105401-0.419556 0.210801-0.618077 0.335644-0.182149 0.11461-0.350994 0.2415-0.520863 0.37146-0.159636 0.122797-0.316202 0.24764-0.464581 0.38374-0.176009 0.159636-0.340761 0.326435-0.499373 0.503467-0.11461 0.127913-0.222057 0.260943-0.326435 0.397043-0.160659 0.206708-0.312108 0.415462-0.448208 0.639566-0.073678 0.121773-0.137123 0.248663-0.203638 0.375553-0.071631 0.135076-0.155543 0.261966-0.217964 0.401136l-47.774073-18.597567c-9.689686-3.771907-20.668739 1.473561-23.556509 11.466146-1.62808 5.630231-1.62808 10.168594-1.62808 10.168594s0.001023 0.049119 0.002047 0.124843c0.001023 0.040932 0.001023 0.063445 0.00307 0.135076 0.001023 0.035816 0.001023 0.056282 0.002047 0.099261l0.001023 0c0.033769 1.131777 0.246617 5.064342 1.61887 9.809413 2.888793 9.993608 13.867846 15.238053 23.557532 11.466146l47.857984-18.629289c0.022513-0.00921 0.036839-0.025583 0.059352-0.034792 0.657986 1.309832 1.703805 2.373047 2.997264 3.056616l0 14.122649-8.538467 0c-4.275373 0-8.147564 1.560542-11.226692 4.060479-7.335059-3.174296-16.141632-1.079588-21.13332 5.606695l0 0c-5.837962 7.818059-4.236488 18.891256 3.576455 24.733311l10.866489 8.124028 0 11.265578c0 2.475378 0.50142 4.834098 1.408069 6.978948 0.906649 2.14485 2.218528 4.076852 3.839445 5.699816 2.843768 2.845815 6.665817 4.649903 10.895141 5.072529l0 112.14515-68.422346 13.300934c-2.90619-5.977132-8.976442-10.130731-16.065907-10.130731L146.490376 497.777067 146.490376 483.617579c1.156336-0.627287 2.108011-1.558495 2.756787-2.701528l47.127344 18.345834c9.689686 3.771907 20.668739-1.473561 23.557532-11.467169 1.37123-4.745071 1.585101-8.677637 1.61887-9.809413l0.001023 0c0.001023-0.041956 0.002047-0.063445 0.00307-0.099261 0.002047-0.070608 0.00307-0.094144 0.00307-0.135076 0.001023-0.075725 0.002047-0.124843 0.002047-0.124843s0-4.538363-1.62808-10.168594c-2.888793-9.993608-13.867846-15.239076-23.557532-11.467169l-46.978964 18.287505c-0.01228-0.023536-0.025583-0.046049-0.037862-0.069585-0.075725-0.144286-0.147356-0.289596-0.232291-0.427742-0.12996-0.209778-0.273223-0.406253-0.423649-0.600681-0.113587-0.147356-0.229221-0.290619-0.353041-0.428765-0.151449-0.167822-0.309038-0.325411-0.476861-0.477884-0.155543-0.14224-0.318248-0.273223-0.48607-0.401136-0.164752-0.124843-0.328481-0.246617-0.50449-0.357134-0.201591-0.12689-0.413416-0.234337-0.62831-0.340761-0.166799-0.082888-0.327458-0.169869-0.50142-0.23843-0.260943-0.104377-0.534166-0.179079-0.809435-0.251733-0.147356-0.038886-0.287549-0.091074-0.438998-0.12075-0.434905-0.084934-0.88209-0.135076-1.341554-0.135076-0.460488 0-0.907673 0.051165-1.343601 0.1361-0.152473 0.029676-0.294712 0.082888-0.443092 0.121773-0.273223 0.072655-0.545422 0.146333-0.805342 0.25071-0.178055 0.070608-0.342808 0.160659-0.5137 0.245593-0.209778 0.104377-0.416486 0.208754-0.613984 0.332575-0.182149 0.11461-0.352017 0.2415-0.522909 0.372483-0.159636 0.122797-0.315178 0.24764-0.464581 0.38374-0.174985 0.158612-0.338714 0.325411-0.497327 0.50142-0.115634 0.128937-0.224104 0.26299-0.329505 0.400113-0.159636 0.205685-0.310062 0.414439-0.446162 0.63752-0.073678 0.122797-0.137123 0.25071-0.204661 0.3776-0.071631 0.134053-0.154519 0.260943-0.216941 0.400113l-47.774073-18.597567c-9.689686-3.771907-20.668739 1.473561-23.557532 11.467169-1.62808 5.630231-1.62808 10.168594-1.62808 10.168594s0.001023 0.048095 0.002047 0.122797c0.001023 0.041956 0.002047 0.070608 0.004093 0.148379 0.001023 0.032746 0.001023 0.050142 0.002047 0.089028l0.001023 0c0.033769 1.131777 0.24764 5.064342 1.61887 9.809413 2.888793 9.993608 13.867846 15.238053 23.557532 11.467169l47.857984-18.629289c0.022513-0.00921 0.036839-0.025583 0.059352-0.034792 0.657986 1.309832 1.703805 2.373047 2.997264 3.056616l0 14.122649-8.538467 0c-4.947685 0-9.42772 2.006703-12.669554 5.251607-1.620917 1.622964-2.932796 3.553942-3.840468 5.699816-0.906649 2.14485-1.408069 4.503571-1.408069 6.978948l0 3.75758-6.331195 1.231037c-9.665127 1.311879-16.437367 10.215666-15.125489 19.885909 1.310855 9.671267 10.208503 16.447601 19.87363 15.135722l1.9934-0.387833c1.403976 6.570649 6.42227 11.743462 12.858866 13.481036l0 172.764785c0 8.017604 6.495948 14.516622 14.508435 14.516622 8.012488 0 14.507412-6.499018 14.507412-14.516622L155.728784 569.495482l1.096984 0c9.896394 0 17.919115-8.026814 17.919115-17.929348l0-8.074909 66.570161-12.94073 0 31.378661c0 8.017604 6.494924 14.516622 14.507412 14.516622 8.012488 0 14.507412-6.499018 14.507412-14.516622l0-37.019125 48.696072-9.466606c10.794857 26.282596 36.620036 44.796252 66.777893 44.796252l106.61418 0 0 25.027-35.368532 0c-21.875217 0-39.771819 17.908882-39.771819 39.797401l0 75.076906c0 21.88852 17.897625 39.797401 39.771819 39.797401l103.323227 0c21.875217 0 39.771819-17.908882 39.771819-39.797401l0-75.076906c0-21.88852-17.897625-39.797401-39.771819-39.797401l-35.107589 0 0-25.027 118.78129 0c29.886681 0 55.530734-18.175965 66.49546-44.081984l61.235666 11.903098 0 33.868365c0 8.017604 6.494924 14.516622 14.507412 14.516622 8.012488 0 14.507412-6.499018 14.507412-14.516622l0-28.227901 51.288107 9.970072 0 7.894807c0 9.902534 8.022721 17.929348 17.918092 17.929348l0.621147 0L870.619704 741.572606c0 8.017604 6.494924 14.516622 14.507412 14.516622 8.012488 0 14.507412-6.499018 14.507412-14.516622L899.634528 568.9562c6.612605-1.586125 11.790534-6.807033 13.283538-13.458523l1.118474 0.216941c9.665127 1.311879 18.562774-5.464455 19.87363-15.135722 1.310855-9.670244-5.460362-18.574031-15.125489-19.885909l-5.403057-1.049912 0-3.937682c0-9.902534-8.022721-17.930371-17.918092-17.930371l-10.337439 0L885.126093 483.617579c1.156336-0.627287 2.108011-1.558495 2.75781-2.701528l47.127344 18.345834c9.689686 3.771907 20.668739-1.473561 23.557532-11.467169 1.37123-4.745071 1.584078-8.677637 1.61887-9.809413l0.001023 0c0.002047-0.041956 0.002047-0.063445 0.00307-0.099261 0.002047-0.070608 0.00307-0.094144 0.00307-0.135076 0.002047-0.075725 0.002047-0.124843 0.002047-0.124843S960.196859 473.087758 958.568778 467.457528zM313.62493 478.528678l0 2.02103-43.293015 8.41567 0-101.758592 60.137659 44.962028C319.960219 444.714548 313.62493 460.878692 313.62493 478.528678zM564.031027 606.110401l11.083429 0 0 11.090593-11.083429 0L564.031027 606.110401zM422.793282 502.772848c-10.136871 0-18.355043-8.222265-18.355043-18.3663 0-10.144034 8.217149-18.3663 18.355043-18.3663 10.136871 0 18.355043 8.222265 18.355043 18.3663C441.148325 494.550583 432.930153 502.772848 422.793282 502.772848zM484.216213 502.772848c-10.136871 0-18.355043-8.222265-18.355043-18.3663 0-10.144034 8.217149-18.3663 18.355043-18.3663s18.355043 8.222265 18.355043 18.3663C502.571257 494.550583 494.353085 502.772848 484.216213 502.772848zM555.256176 663.697981c0 25.300222-20.496823 45.810349-45.781696 45.810349-25.284873 0-45.782719-20.510126-45.782719-45.810349 0-25.300222 20.496823-45.811372 45.782719-45.811372C534.759353 617.886609 555.256176 638.397758 555.256176 663.697981zM545.638121 502.772848c-10.136871 0-18.355043-8.222265-18.355043-18.3663 0-10.144034 8.218172-18.3663 18.355043-18.3663 10.137895 0 18.355043 8.222265 18.355043 18.3663C563.993165 494.550583 555.776016 502.772848 545.638121 502.772848zM607.061053 502.772848c-10.136871 0-18.355043-8.222265-18.355043-18.3663 0-10.144034 8.218172-18.3663 18.355043-18.3663 10.136871 0 18.355043 8.222265 18.355043 18.3663C625.416096 494.550583 617.198947 502.772848 607.061053 502.772848zM771.779581 492.117161l-55.549154-10.79895 0-2.789533c0-15.188934-4.695952-29.274744-12.69923-40.904619l68.248384-51.02614L771.779581 492.117161zM422.793282 471.607034c-7.064906 0-12.792351 5.730515-12.792351 12.799514s5.727445 12.800537 12.792351 12.800537c7.064906 0 12.792351-5.730515 12.792351-12.800537S429.858188 471.607034 422.793282 471.607034zM545.638121 471.607034c-7.064906 0-12.792351 5.730515-12.792351 12.799514s5.727445 12.800537 12.792351 12.800537c7.064906 0 12.792351-5.730515 12.792351-12.800537S552.704051 471.607034 545.638121 471.607034zM484.216213 471.607034c-7.064906 0-12.792351 5.730515-12.792351 12.799514s5.727445 12.800537 12.792351 12.800537c7.064906 0 12.792351-5.730515 12.792351-12.800537S491.281119 471.607034 484.216213 471.607034zM495.427556 663.697981c0 7.762801 6.28924 14.056134 14.046924 14.056134 7.757684 0 14.046924-6.293333 14.046924-14.056134s-6.28924-14.056134-14.046924-14.056134C501.716796 649.641847 495.427556 655.93518 495.427556 663.697981zM517.03262 663.697981c0 4.176113-3.384074 7.562233-7.55814 7.562233-4.174066 0-7.55814-3.38612-7.55814-7.562233 0-4.177136 3.384074-7.562233 7.55814-7.562233C513.648546 656.135748 517.03262 659.520845 517.03262 663.697981zM474.661603 663.697981c0 19.238157 15.585977 34.833343 34.811854 34.833343 19.225877 0 34.811854-15.595186 34.811854-34.833343 0-19.238157-15.585977-34.834366-34.811854-34.834366C490.24758 628.863614 474.661603 644.459824 474.661603 663.697981zM531.199271 663.697981c0 12.005428-9.726525 21.738094-21.724791 21.738094-11.998265 0-21.724791-9.732665-21.724791-21.738094 0-12.006452 9.726525-21.738094 21.724791-21.738094C521.472745 641.959887 531.199271 651.691529 531.199271 663.697981zM607.061053 471.607034c-7.064906 0-12.792351 5.730515-12.792351 12.799514s5.727445 12.800537 12.792351 12.800537 12.792351-5.730515 12.792351-12.800537S614.125959 471.607034 607.061053 471.607034z" fill="#AAAAAA" p-id="13968"></path></svg>