<?xml version="1.0" standalone="no"?><!DOCTYPE svg PUBLIC "-//W3C//DTD SVG 1.1//EN" "http://www.w3.org/Graphics/SVG/1.1/DTD/svg11.dtd"><svg t="1749799234972" class="icon" viewBox="0 0 1316 1024" version="1.1" xmlns="http://www.w3.org/2000/svg" p-id="15609" width="61.6875" height="48" xmlns:xlink="http://www.w3.org/1999/xlink"><path d="M146.285714 731.428571V292.571429h731.428572v438.857142H146.285714zM1243.428571 329.142857c40.557714 0 73.142857 32.585143 73.142858 73.142857v219.428572c0 40.557714-32.585143 73.142857-73.142858 73.142857v91.428571c0 50.285714-41.142857 91.428571-91.428571 91.428572h-1060.571429A91.684571 91.684571 0 0 1 0 786.285714v-548.571428C0 187.428571 41.142857 146.285714 91.428571 146.285714h1060.571429C1202.285714 146.285714 1243.428571 187.428571 1243.428571 237.714286V329.142857z m0 292.571429v-219.428572h-73.142857V237.714286c0-10.276571-8.009143-18.285714-18.285714-18.285715h-1060.571429c-10.276571 0-18.285714 8.009143-18.285714 18.285715v548.571428c0 10.276571 8.009143 18.285714 18.285714 18.285715h1060.571429c10.276571 0 18.285714-8.009143 18.285714-18.285715V621.714286h73.142857z" fill="#1296db" p-id="15610"></path></svg>