<?xml version="1.0" standalone="no"?><!DOCTYPE svg PUBLIC "-//W3C//DTD SVG 1.1//EN" "http://www.w3.org/Graphics/SVG/1.1/DTD/svg11.dtd"><svg t="1753235675319" class="icon" viewBox="0 0 1024 1024" version="1.1" xmlns="http://www.w3.org/2000/svg" p-id="2078" width="100" height="100" xmlns:xlink="http://www.w3.org/1999/xlink"><path d="M94.85 502.74c0-88.25 6.43-176.5 19.28-264.14l0.04-0.26c4.81-30.68 21.45-61.57 46.85-86.98 25.41-25.41 56.3-42.05 86.98-46.85l0.26-0.04a1818.793 1818.793 0 0 1 528.28 0l0.26 0.04c30.68 4.81 61.57 21.44 86.98 46.85 25.41 25.41 42.05 56.3 46.85 86.98l0.04 0.26a1818.793 1818.793 0 0 1 0 528.28l-0.04 0.26c-4.81 30.68-21.44 61.57-46.85 86.98s-56.3 42.05-86.98 46.85l-0.26 0.04a1818.793 1818.793 0 0 1-528.28 0l-0.26-0.04c-30.68-4.81-61.57-21.44-86.98-46.85-25.41-25.41-42.05-56.3-46.85-86.98l-0.04-0.26a1820.45 1820.45 0 0 1-19.28-264.14z m73.69-256.03c-24.91 169.89-24.91 342.15 0 512.05 6.3 39.74 48.12 81.56 87.86 87.86 169.87 24.9 342.16 24.9 512.03 0 39.75-6.3 81.57-48.12 87.86-87.86 24.9-169.87 24.9-342.16 0-512.03-6.3-39.74-48.12-81.57-87.86-87.86a1764.188 1764.188 0 0 0-512.03 0c-39.74 6.28-81.56 48.1-87.86 87.84z" fill="#64A0CF" p-id="2079"></path><path d="M677.82 616.65L467.99 406.81c-10.19-10.19-10.19-26.72 0-36.92l12.58-12.58c10.19-10.19 26.72-10.19 36.92 0l209.84 209.84c10.19 10.19 10.19 26.72 0 36.92l-12.58 12.58c-10.2 10.19-26.73 10.19-36.93 0z" fill="#9EEFD9" p-id="2080"></path><path d="M283.94 617.33l-12.58-12.58c-10.19-10.19-10.19-26.72 0-36.92L481.2 358c10.19-10.19 26.72-10.19 36.92 0l12.58 12.58c10.19 10.19 10.19 26.72 0 36.92L320.86 617.33c-10.2 10.2-26.72 10.2-36.92 0z" fill="#9EEFD9" p-id="2081"></path></svg>