<?xml version="1.0" standalone="no"?><!DOCTYPE svg PUBLIC "-//W3C//DTD SVG 1.1//EN" "http://www.w3.org/Graphics/SVG/1.1/DTD/svg11.dtd"><svg t="1750931502811" class="icon" viewBox="0 0 1024 1024" version="1.1" xmlns="http://www.w3.org/2000/svg" p-id="10623" width="32" height="32" xmlns:xlink="http://www.w3.org/1999/xlink"><path d="M668.805161 999.029272v-77.364218h180.900161a72.059815 72.059815 0 0 0 71.959732-71.959732v-180.900161h77.314177v180.900161a149.474075 149.474075 0 0 1-149.273909 149.273909z m-494.460441 0A149.474075 149.474075 0 0 1 25.020769 849.705322v-180.900161h77.314177v180.900161a72.059815 72.059815 0 0 0 71.959732 71.959732h180.900161v77.364218z m494.11015-238.247764l-47.089088-122.851977h-209.674046l-45.637883 122.851977H259.365293L470.540585 222.18443h93.427553l217.830816 538.597078z m-223.635635-214.127743h141.967844l-72.059815-189.106973z m476.895861-191.408884V174.294678a72.059815 72.059815 0 0 0-71.959733-71.959732h-180.900161V25.020769h180.900161a149.474075 149.474075 0 0 1 149.273909 149.273909V355.294923z m-896.644285 0V174.294678A149.474075 149.474075 0 0 1 174.294678 25.020769h180.900161v77.314177H174.294678a72.059815 72.059815 0 0 0-71.959732 71.959732V355.294923z" fill="#ffffff" p-id="10624"></path></svg>