<?xml version="1.0" standalone="no"?><!DOCTYPE svg PUBLIC "-//W3C//DTD SVG 1.1//EN" "http://www.w3.org/Graphics/SVG/1.1/DTD/svg11.dtd"><svg t="1750943393997" class="icon" viewBox="0 0 1097 1024" version="1.1" xmlns="http://www.w3.org/2000/svg" p-id="22098" width="51.421875" height="48" xmlns:xlink="http://www.w3.org/1999/xlink"><path d="M592.091429 219.428571c0-8.996571-10.532571-30.72-43.52-30.72-32.987429 0-39.350857 21.723429-39.350858 30.72H475.428571a73.142857 73.142857 0 0 1 146.285715 0h-29.622857z" p-id="22099" fill="#ffffff"></path><path d="M768 219.428571h-69.046857A150.528 150.528 0 0 0 548.571429 68.973714 150.528 150.528 0 0 0 398.189714 219.428571H329.142857a219.794286 219.794286 0 0 1 219.428572-219.428571 219.721143 219.721143 0 0 1 219.428571 219.428571zM768 804.571429c80.530286 0 146.285714-65.755429 146.285714-146.285715s-65.755429-146.285714-146.285714-146.285714-146.285714 65.755429-146.285714 146.285714 65.755429 146.285714 146.285714 146.285715z m-73.142857-146.285715c0-40.740571 33.572571-73.142857 73.142857-73.142857 40.740571 0 73.142857 33.572571 73.142857 73.142857 0 40.740571-33.572571 73.142857-73.142857 73.142857-40.740571 1.170286-73.142857-32.402286-73.142857-73.142857zM329.142857 804.571429c80.530286 0 146.285714-65.755429 146.285714-146.285715s-65.755429-146.285714-146.285714-146.285714-146.285714 65.755429-146.285714 146.285714 65.755429 146.285714 146.285714 146.285715z m0-219.428572c40.740571 0 73.142857 33.572571 73.142857 73.142857 0 40.740571-33.572571 73.142857-73.142857 73.142857-40.740571 0-73.142857-33.572571-73.142857-73.142857-1.170286-39.570286 32.402286-73.142857 73.142857-73.142857zM285.988571 318.171429c-14.628571 6.875429-30.72 3.437714-35.693714-7.168L146.797714 88.941714c-5.12-10.971429 2.706286-25.161143 16.969143-31.744 14.628571-6.875429 30.281143-3.291429 35.254857 7.387429l103.497143 221.988571c5.412571 10.459429-2.267429 25.014857-16.530286 31.597715zM813.641143 318.537143c-14.628571-6.802286-22.235429-21.211429-17.261714-31.963429L899.949714 64.585143c5.12-10.971429 20.918857-14.116571 35.474286-7.314286s21.723429 20.992 16.749714 31.670857l-103.497143 221.988572c-4.534857 10.971429-20.48 14.336-35.108571 7.606857z" p-id="22100" fill="#ffffff"></path><path d="M899.657143 292.571429H197.485714C108.397714 292.790857 36.425143 359.424 36.571429 441.563429v433.444571c-0.219429 82.066286 71.826286 148.772571 160.914285 148.992h702.171429c89.088-0.219429 161.133714-66.925714 160.914286-148.992V441.563429c0.146286-82.139429-71.826286-148.772571-160.914286-148.992zM197.485714 373.76h702.171429c40.374857 0 73.142857 30.354286 73.142857 67.803429v433.444571c0 37.449143-32.768 67.730286-73.142857 67.730286H197.485714c-19.456-0.073143-38.034286-7.241143-51.785143-19.968a64.950857 64.950857 0 0 1-21.357714-47.762286V441.563429c0-37.449143 32.768-67.730286 73.142857-67.730286z" p-id="22101" fill="#ffffff"></path></svg>