<?xml version="1.0" standalone="no"?><!DOCTYPE svg PUBLIC "-//W3C//DTD SVG 1.1//EN" "http://www.w3.org/Graphics/SVG/1.1/DTD/svg11.dtd"><svg t="1750943145716" class="icon" viewBox="0 0 1024 1024" version="1.1" xmlns="http://www.w3.org/2000/svg" p-id="18288" width="48" height="48" xmlns:xlink="http://www.w3.org/1999/xlink"><path d="M85.312 469.12A428.864 428.864 0 0 1 469.12 85.312v86.272A343.168 343.168 0 0 0 171.648 469.12H85.312zM85.312 554.88a428.8 428.8 0 0 0 383.808 383.744v-86.272A343.168 343.168 0 0 1 171.648 554.88H85.312zM852.352 554.88a343.168 343.168 0 0 1-297.472 297.472v86.272a428.864 428.864 0 0 0 383.808-383.744h-86.336zM938.688 469.12A428.864 428.864 0 0 0 554.88 85.312v86.272a343.168 343.168 0 0 1 297.472 297.536h86.336z" p-id="18289" fill="#ffffff"></path><path d="M361.92 533.44l300.16-278.72-108.8 235.84h108.8l-300.16 278.72 108.8-235.84h-108.8z" p-id="18290" fill="#ffffff"></path></svg>